<svg xmlns="http://www.w3.org/2000/svg" data-name="Layer 1" viewBox="0 0 32 32" id="paint-bucket"><path fill="#4880bd" d="M2.985,6.349h20a0,0,0,0,1,0,0v16a4,4,0,0,1-4,4h-12a4,4,0,0,1-4-4v-16a0,0,0,0,1,0,0Z" transform="rotate(45 12.985 16.35)"></path><rect width="22" height="2" x="9.763" y="7.571" fill="#436fb1" rx="1" ry="1" transform="rotate(45 20.764 8.57)"></rect><path fill="#afaeb3" d="M12.07,3.12l-.04-.04C8.57.38,7.85,1.1,7.62,1.33c-.77.77.41,2.71,1.79,4.46a40.66,40.66,0,0,0,2.96,3.32c1.02,1.01,2.07,1.97,3.05,2.76a.091.091,0,0,0,.07.03.393.393,0,0,0,.25.08.523.523,0,0,0,.39-.19.5.5,0,0,0-.01-.63.234.234,0,0,0-.07-.07A39.278,39.278,0,0,1,13.08,8.4a35.782,35.782,0,0,1-2.96-3.32A8.287,8.287,0,0,1,8.35,2.07c.31.03,1.21.36,3.01,1.76Z"></path><circle cx="16.874" cy="12.46" r="1.5" fill="#fff" transform="rotate(-45 16.874 12.46)"></circle><path fill="#fdd331" d="M30.5,22a1.5,1.5,0,0,1-3,0c0-.828,1.5-2.5,1.5-2.5S30.5,21.172,30.5,22Z"></path><path fill="#e23342" d="M30.5,29a1.5,1.5,0,0,1-3,0c0-.828,1.5-2.5,1.5-2.5S30.5,28.172,30.5,29Z"></path></svg>